Den første Snøhvit var ikke synkron i lyden har jeg fått høre, så vi prøver igjen:-)


Ingen annen tegnefilm har trollbundet så mange mennesker som Walt Disneys første mesterverk Snehvit og de syv dvergene. Filmklassikeren fra 1937 kommer for første gang i en digitalt restaurert utgave. Den imponerende bilde- og lydkvaliteten gjør at du kan oppleve dette fantastiske eventyret på en helt ny måte! Møt Snehvit, den onde stemoren, det magiske speilet, heksen med det forgiftede eplet, den gode prinsen og fremfor alt våre elskede favoritter - de syv dvergene; Blygen, Brille, Minsten, Sinnataggen, Lystig, Søvnig og Prosit. Snehvit og de syv dvergene er en herlig film for hele familien som kan ses om og om igjen! 


Skuespillere
Adriana Caselotti, Lucille La Verne, Moroni Olsen 

Regissør
David Hand 

Originaltittel
Snow White and the Seven Dwarfs 

Varighet
DVD: 1 tim 20 min 
Blu-ray: 1 tim 23 min  

Aldersgrense
Aldersgrense A 

Filmsamlinger
Basert på bok, Klassiker, Må-se-filmer 

Sjangre
Barn og familie, Fantasy, Musikk og dans, Romantikk, Tegnet/Animert 


General
Complete name                            : D:Snøhvit og de 7 dvergene- DVDrip norsk tale- Robban.mp4
Format                                   : MPEG-4
Format profile                           : Base Media / Version 2
Codec ID                                 : mp42
File size                                : 1.56 GiB
Duration                                 : 1h 20mn
Overall bit rate mode                    : Variable
Overall bit rate                         : 2 783 Kbps
Movie name                               : SNEHVIT.Title1.DVDRip
Album                                    : SNEHVIT
Encoded date                             : UTC 2013-06-15 01:56:57
Tagged date                              : UTC 2013-06-15 02:03:24
Writing application                      : DVDFab

Video
ID                                       : 1
Format                                   : AVC
Format/Info                              : Advanced Video Codec
Format profile                           : Main@L3.0
Format settings, CABAC                   : Yes
Format settings, ReFrames                : 1 frame
Format settings, GOP                     : M=1, N=15
Codec ID                                 : avc1
Codec ID/Info                            : Advanced Video Coding
Duration                                 : 1h 20mn
Bit rate mode                            : Variable
Bit rate                                 : 2 441 Kbps
Maximum bit rate                         : 3 658 Kbps
Width                                    : 720 pixels
Height                                   : 542 pixels
Display aspect ratio                     : 4:3
Frame rate mode                          : Constant
Frame rate                               : 25.000 fps
Color space                              : YUV
Chroma subsampling                       : 4:2:0
Bit depth                                : 8 bits
Scan type                                : Progressive
Bits/(Pixel*Frame)                       : 0.250
Stream size                              : 1.37 GiB (88%)
Encoded date                             : UTC 2013-06-15 01:56:57
Tagged date                              : UTC 2013-06-15 02:03:16
Color primaries                          : BT.601 NTSC
Transfer characteristics                 : BT.709
Matrix coefficients                      : BT.601

Audio
ID                                       : 2
Format                                   : AAC
Format/Info                              : Advanced Audio Codec
Format profile                           : LC
Codec ID                                 : 40
Duration                                 : 1h 20mn
Bit rate mode                            : Variable
Bit rate                                 : 339 Kbps
Maximum bit rate                         : 393 Kbps
Channel(s)                               : 6 channels
Channel positions                        : Front: L C R, Side: L R, LFE
Sampling rate                            : 48.0 KHz
Compression mode                         : Lossy
Stream size                              : 194 MiB (12%)
Language                                 : English
Encoded date                             : UTC 2013-06-15 01:56:57
Tagged date                              : UTC 2013-06-15 02:03:11

Text
ID                                       : 3
Format                                   : Apple text
Codec ID                                 : text
Duration                                 : 1h 20mn
Bit rate mode                            : Variable
Bit rate                                 : 1 bps
Stream size                              : 663 Bytes (0%)
Encoded date                             : UTC 2013-06-15 01:56:57
Tagged date                              : UTC 2013-06-15 02:03:24

